<?xml version="1.0" encoding="UTF-8" standalone="no"?>
<!-- Created with Inkscape (http://www.inkscape.org/) -->

<svg
   width="210mm"
   height="112.05373mm"
   viewBox="0 0 210 112.05373"
   version="1.1"
   id="svg31188"
   xml:space="preserve"
   inkscape:version="1.2.2 (b0a8486541, 2022-12-01)"
   sodipodi:docname="Architektur.svg"
   xmlns:inkscape="http://www.inkscape.org/namespaces/inkscape"
   xmlns:sodipodi="http://sodipodi.sourceforge.net/DTD/sodipodi-0.dtd"
   xmlns="http://www.w3.org/2000/svg"
   xmlns:svg="http://www.w3.org/2000/svg"><sodipodi:namedview
     id="namedview31190"
     pagecolor="#ffffff"
     bordercolor="#666666"
     borderopacity="1.0"
     inkscape:showpageshadow="2"
     inkscape:pageopacity="0.0"
     inkscape:pagecheckerboard="0"
     inkscape:deskcolor="#d1d1d1"
     inkscape:document-units="mm"
     showgrid="false"
     inkscape:zoom="1.0863487"
     inkscape:cx="367.2854"
     inkscape:cy="251.30054"
     inkscape:window-width="1920"
     inkscape:window-height="1000"
     inkscape:window-x="0"
     inkscape:window-y="0"
     inkscape:window-maximized="1"
     inkscape:current-layer="layer1" /><defs
     id="defs31185"><marker
       style="overflow:visible"
       id="marker2515"
       refX="3"
       refY="0"
       orient="auto-start-reverse"
       inkscape:stockid="TriangleStart"
       markerWidth="5.3244081"
       markerHeight="6.155385"
       viewBox="0 0 5.3244081 6.1553851"
       inkscape:isstock="true"
       inkscape:collect="always"
       preserveAspectRatio="xMidYMid"><path
         transform="scale(0.5)"
         style="fill:context-stroke;fill-rule:evenodd;stroke:context-stroke;stroke-width:1pt"
         d="M 5.77,0 -2.88,5 V -5 Z"
         id="path2513" /></marker><marker
       style="overflow:visible"
       id="TriangleStart"
       refX="3"
       refY="0"
       orient="auto-start-reverse"
       inkscape:stockid="TriangleStart"
       markerWidth="5.3244081"
       markerHeight="6.155385"
       viewBox="0 0 5.3244081 6.1553851"
       inkscape:isstock="true"
       inkscape:collect="always"
       preserveAspectRatio="xMidYMid"><path
         style="fill:context-stroke;fill-rule:evenodd;stroke:context-stroke;stroke-width:0.5pt"
         d="M 2.885,0 -1.44,2.5 v -5 z"
         id="path135" /></marker><marker
       style="overflow:visible"
       id="TriangleStart-2"
       refX="3"
       refY="0"
       orient="auto-start-reverse"
       inkscape:stockid="TriangleStart"
       markerWidth="5.3244081"
       markerHeight="6.155385"
       viewBox="0 0 5.3244081 6.1553851"
       inkscape:isstock="true"
       inkscape:collect="always"
       preserveAspectRatio="xMidYMid"><path
         style="fill:context-stroke;fill-rule:evenodd;stroke:context-stroke;stroke-width:0.5pt"
         d="M 2.885,0 -1.44,2.5 v -5 z"
         id="path135-9" /></marker><marker
       style="overflow:visible"
       id="marker2515-1"
       refX="3"
       refY="0"
       orient="auto-start-reverse"
       inkscape:stockid="TriangleStart"
       markerWidth="5.3244081"
       markerHeight="6.155385"
       viewBox="0 0 5.3244081 6.1553851"
       inkscape:isstock="true"
       inkscape:collect="always"
       preserveAspectRatio="xMidYMid"><path
         transform="scale(0.5)"
         style="fill:context-stroke;fill-rule:evenodd;stroke:context-stroke;stroke-width:1pt"
         d="M 5.77,0 -2.88,5 V -5 Z"
         id="path2513-2" /></marker></defs><g
     inkscape:label="Ebene 1"
     inkscape:groupmode="layer"
     id="layer1"
     transform="translate(0,-19.042864)"><rect
       style="opacity:0.83157997;fill:#ffffff;fill-opacity:1;stroke-width:0.392999;stroke-linecap:butt;stroke-dasharray:none;stroke-opacity:0.398512;paint-order:markers fill stroke"
       id="rect3038"
       width="210"
       height="112.05373"
       x="0"
       y="19.042864"
       rx="7.2429419"
       ry="7.2429419" /><g
       id="g47476"
       transform="matrix(0.83515071,0,0,0.83476064,-0.91824995,-61.358719)"
       style="stroke-width:1.19767"><rect
         style="fill:#aaccff;stroke:#555555;stroke-width:0.471275;stroke-linecap:square;stroke-dasharray:none;stroke-opacity:1"
         id="rect35167"
         width="39.747208"
         height="15.945876"
         x="53.800117"
         y="197.67038" /><path
         d="m 63.575134,203.14427 v 0.72239 c 0,0.66519 -1.509806,1.20397 -3.371845,1.20397 -1.86203,0 -3.371836,-0.53878 -3.371836,-1.20397 v -0.72239 c 0,-0.66519 1.509806,-1.20396 3.371836,-1.20396 1.862039,0 3.371845,0.53877 3.371845,1.20396 z m -0.824902,2.02719 c 0.313105,-0.11137 0.600614,-0.25433 0.824902,-0.43041 v 1.53355 c 0,0.66519 -1.509806,1.20397 -3.371845,1.20397 -1.86203,0 -3.371836,-0.53878 -3.371836,-1.20397 v -1.53355 c 0.224288,0.17758 0.511797,0.31904 0.824902,0.43041 0.675863,0.2408 1.576032,0.38075 2.546934,0.38075 0.970911,0 1.871072,-0.13995 2.546943,-0.38075 z m -5.918779,1.97752 c 0.224288,0.17759 0.511797,0.31905 0.824902,0.43042 0.675863,0.2408 1.576032,0.38076 2.546934,0.38076 0.970911,0 1.871072,-0.13996 2.546943,-0.38076 0.313105,-0.11137 0.600614,-0.25433 0.824902,-0.43042 v 1.29276 c 0,0.66519 -1.509806,1.20398 -3.371845,1.20398 -1.86203,0 -3.371836,-0.53879 -3.371836,-1.20398 z"
         id="path31417"
         style="opacity:0.474093;fill:#000000;stroke-width:0.249384" /><text
         xml:space="preserve"
         style="font-style:normal;font-variant:normal;font-weight:bold;font-stretch:normal;font-size:3.09029px;line-height:1.25;font-family:Inconsolata;-inkscape-font-specification:'Inconsolata Bold';letter-spacing:0px;word-spacing:0px;opacity:0.801373;fill:#000000;fill-opacity:1;stroke:none;stroke-width:0.249383"
         x="67.575821"
         y="205.02496"
         id="text37198"
         transform="scale(1.0001135,0.99988649)"><tspan
           sodipodi:role="line"
           id="tspan37196"
           style="font-style:normal;font-variant:normal;font-weight:normal;font-stretch:normal;font-family:Inter;-inkscape-font-specification:Inter;fill:#000000;stroke-width:0.249383"
           x="67.575821"
           y="205.02496">Genealogische</tspan><tspan
           sodipodi:role="line"
           style="font-style:normal;font-variant:normal;font-weight:normal;font-stretch:normal;font-family:Inter;-inkscape-font-specification:Inter;fill:#000000;stroke-width:0.249383"
           x="67.575821"
           y="208.94478"
           id="tspan37200">Datenbank</tspan></text><rect
         style="fill:#aaccff;stroke:#555555;stroke-width:0.471275;stroke-linecap:square;stroke-dasharray:none;stroke-opacity:1"
         id="rect35167-3"
         width="29.623158"
         height="15.945876"
         x="13.973584"
         y="198.04936" /><rect
         style="fill:#aaccff;stroke:#555555;stroke-width:0.471275;stroke-linecap:square;stroke-dasharray:none;stroke-opacity:1"
         id="rect35167-3-8"
         width="35.90826"
         height="15.945876"
         x="31.489014"
         y="174.3522" /><text
         xml:space="preserve"
         style="font-style:normal;font-variant:normal;font-weight:bold;font-stretch:normal;font-size:3.09029px;line-height:1.25;font-family:Inconsolata;-inkscape-font-specification:'Inconsolata Bold';letter-spacing:0px;word-spacing:0px;opacity:0.801373;fill:#000000;fill-opacity:1;stroke:none;stroke-width:0.249383"
         x="29.831696"
         y="206.74258"
         id="text37198-0"
         transform="scale(1.0001135,0.99988649)"><tspan
           sodipodi:role="line"
           style="font-style:normal;font-variant:normal;font-weight:normal;font-stretch:normal;font-family:Inter;-inkscape-font-specification:Inter;fill:#000000;stroke-width:0.249383"
           x="29.831696"
           y="206.74258"
           id="tspan37200-3">Medien</tspan></text><path
         d="m 20.562115,201.92184 h 4.816912 c 0.531366,0 0.963381,0.43192 0.963381,0.96317 v 3.37112 c 0,0.53124 -0.432015,0.96317 -0.963381,0.96317 h -4.816912 c -0.531358,0 -0.963373,-0.43193 -0.963373,-0.96317 v -3.37112 c 0,-0.53125 0.432015,-0.96317 0.963373,-0.96317 z m 3.31163,1.60579 c -0.0677,-0.10084 -0.180636,-0.16103 -0.301058,-0.16103 -0.120421,0 -0.233321,0.0602 -0.301058,0.16103 l -0.842959,1.26417 -0.260411,-0.32658 c -0.06926,-0.0858 -0.173107,-0.13544 -0.28149,-0.13544 -0.108384,0 -0.213754,0.0496 -0.28149,0.13544 l -0.963381,1.20397 c -0.08731,0.10836 -0.103867,0.25735 -0.04369,0.38226 0.06019,0.12491 0.186663,0.20468 0.325142,0.20468 h 1.204232 0.722538 2.167605 c 0.13397,0 0.255903,-0.0737 0.319123,-0.19113 0.06321,-0.11739 0.0557,-0.26036 -0.01805,-0.37023 z m -2.107398,-0.16103 a 0.4816909,0.48158823 0 1 0 -0.963381,0 0.4816909,0.48158823 0 1 0 0.963381,0 z m -4.094374,0.48159 h 1.445075 v 3.85269 0.4816 c 0,0.26637 0.215256,0.48159 0.481694,0.48159 h 1.926762 c 0.26643,0 0.481686,-0.21522 0.481686,-0.48159 v -0.4816 h 2.408456 v 0.96319 c 0,0.53124 -0.432015,0.96317 -0.96338,0.96317 h -5.780293 c -0.531358,0 -0.963381,-0.43193 -0.963381,-0.96317 v -3.85271 c 0,-0.53124 0.432023,-0.96317 0.963381,-0.96317 z m 0.120421,0.96317 c -0.132459,0 -0.240843,0.10835 -0.240843,0.2408 v 0.24079 c 0,0.13244 0.108384,0.24079 0.240843,0.24079 h 0.240852 c 0.132459,0 0.240843,-0.10835 0.240843,-0.24079 v -0.24079 c 0,-0.13245 -0.108384,-0.2408 -0.240843,-0.2408 z m 0,1.56517 c -0.132459,0 -0.240843,0.10835 -0.240843,0.24079 v 0.24079 c 0,0.13244 0.108384,0.24079 0.240843,0.24079 h 0.240852 c 0.132459,0 0.240843,-0.10835 0.240843,-0.24079 v -0.24079 c 0,-0.13244 -0.108384,-0.24079 -0.240843,-0.24079 z m 0,1.56516 c -0.132459,0 -0.240843,0.10835 -0.240843,0.24079 v 0.2408 c 0,0.13242 0.108384,0.24079 0.240843,0.24079 h 0.240852 c 0.132459,0 0.240843,-0.10837 0.240843,-0.24079 v -0.2408 c 0,-0.13244 -0.108384,-0.24079 -0.240843,-0.24079 z m 5.057755,0.24079 v 0.2408 c 0,0.13242 0.108384,0.24079 0.240852,0.24079 h 0.240843 c 0.132468,0 0.240843,-0.10837 0.240843,-0.24079 v -0.2408 c 0,-0.13244 -0.108375,-0.24079 -0.240843,-0.24079 h -0.240843 c -0.132468,0 -0.240852,0.10835 -0.240852,0.24079 z"
         id="path31408"
         style="opacity:0.474093;fill:#000000;stroke-width:0.249384" /><path
         d="m 41.679927,182.33037 c -0.115905,-0.46503 -0.335678,-0.81569 -0.803815,-0.81569 h -0.603627 v 0.71334 c 0,0.55384 -0.46964,1.02038 -1.00553,1.02038 h -1.607638 c -0.439545,0 -0.803824,0.37624 -0.803824,0.81719 v 1.53206 c 0,0.43644 0.37933,0.69228 0.803824,0.81719 0.508784,0.14899 0.998,0.17609 1.607638,0 0.404925,-0.11738 0.803823,-0.35367 0.803823,-0.81719 v -0.61253 h -1.606136 v -0.20467 h 2.41147 c 0.468137,0 0.641244,-0.32658 0.803815,-0.81569 0.16859,-0.50416 0.161069,-0.98876 0,-1.63439 z m -2.312119,3.0626 c 0.167088,0 0.302569,0.13695 0.302569,0.30551 0,0.17006 -0.135481,0.30702 -0.302569,0.30702 -0.165584,0 -0.30256,-0.13847 -0.30256,-0.30702 0.0016,-0.17006 0.136976,-0.30551 0.30256,-0.30551 z m -1.782255,-2.34624 h 1.607638 c 0.447083,0 0.803823,-0.36871 0.803823,-0.81719 v -1.53356 c 0,-0.43644 -0.367284,-0.76302 -0.803823,-0.83675 -0.538888,-0.0888 -1.124441,-0.0843 -1.607638,0.002 -0.68038,0.12039 -0.803823,0.37172 -0.803823,0.83676 v 0.61253 h 1.609149 v 0.20466 h -2.212768 c -0.468138,0 -0.877579,0.28144 -1.005522,0.8157 -0.14752,0.61252 -0.153539,0.99478 0,1.63439 0.114394,0.47556 0.386859,0.81569 0.854997,0.81569 h 0.552436 v -0.73442 c 0,-0.53126 0.459121,-0.9993 1.005531,-0.9993 z m -0.100854,-2.14608 c -0.167079,0 -0.302561,-0.13695 -0.302561,-0.3055 0.0016,-0.17006 0.135482,-0.30701 0.302561,-0.30701 0.165585,0 0.302561,0.13845 0.302561,0.30701 0,0.16855 -0.135473,0.3055 -0.302561,0.3055 z"
         id="path31381"
         style="opacity:0.474093;fill:#000000;stroke-width:0.249384" /><text
         xml:space="preserve"
         style="font-style:normal;font-variant:normal;font-weight:bold;font-stretch:normal;font-size:3.09029px;line-height:1.25;font-family:Inconsolata;-inkscape-font-specification:'Inconsolata Bold';letter-spacing:0px;word-spacing:0px;opacity:0.801373;fill:#000000;fill-opacity:1;stroke:none;stroke-width:0.249383"
         x="44.598446"
         y="181.40863"
         id="text37198-7"
         transform="scale(1.0001135,0.99988649)"><tspan
           sodipodi:role="line"
           style="font-style:normal;font-variant:normal;font-weight:normal;font-stretch:normal;font-family:Inter;-inkscape-font-specification:Inter;fill:#000000;stroke-width:0.249383"
           x="44.598446"
           y="181.40863"
           id="tspan37200-1">Gramps-</tspan><tspan
           sodipodi:role="line"
           style="font-style:normal;font-variant:normal;font-weight:normal;font-stretch:normal;font-family:Inter;-inkscape-font-specification:Inter;fill:#000000;stroke-width:0.249383"
           x="44.598446"
           y="185.32845"
           id="tspan37412">Bibliothek</tspan></text><rect
         style="fill:#c4c8b7;stroke:#555555;stroke-width:0.471275;stroke-linecap:square;stroke-dasharray:none;stroke-opacity:1"
         id="rect35167-3-8-0"
         width="35.90826"
         height="15.945876"
         x="31.985252"
         y="152.46461" /><text
         xml:space="preserve"
         style="font-style:normal;font-variant:normal;font-weight:bold;font-stretch:normal;font-size:3.09029px;line-height:1.25;font-family:Inconsolata;-inkscape-font-specification:'Inconsolata Bold';letter-spacing:0px;word-spacing:0px;opacity:0.801;fill:#000000;fill-opacity:1;stroke:none;stroke-width:0.249383"
         x="45.094627"
         y="159.51871"
         id="text37198-7-5"
         transform="scale(1.0001135,0.99988649)"><tspan
           sodipodi:role="line"
           style="font-style:normal;font-variant:normal;font-weight:normal;font-stretch:normal;font-family:Inter;-inkscape-font-specification:Inter;stroke-width:0.249383"
           x="45.094627"
           y="159.51871"
           id="tspan37200-1-0">Gramps-</tspan><tspan
           sodipodi:role="line"
           style="font-style:normal;font-variant:normal;font-weight:normal;font-stretch:normal;font-family:Inter;-inkscape-font-specification:Inter;stroke-width:0.249383"
           x="45.094627"
           y="163.43852"
           id="tspan37412-3">Desktop-GUI</tspan></text><path
         d="m 34.950815,156.72332 c -0.531366,0 -0.963381,0.43192 -0.963381,0.96317 v 4.33429 c 0,0.53126 0.432015,0.96318 0.963381,0.96318 h 2.649299 l -0.161068,0.48159 H 36.39589 c -0.266438,0 -0.481694,0.21521 -0.481694,0.48159 0,0.26638 0.215256,0.48159 0.481694,0.48159 h 3.853532 c 0.266422,0 0.481686,-0.21521 0.481686,-0.48159 0,-0.26638 -0.215264,-0.48159 -0.481686,-0.48159 h -1.043164 l -0.161077,-0.48159 h 2.6493 c 0.531374,0 0.963389,-0.43192 0.963389,-0.96318 v -4.33429 c 0,-0.53125 -0.432015,-0.96317 -0.963389,-0.96317 z m 6.743666,0.96317 v 3.37112 h -6.743666 v -3.37112 z"
         id="path31399"
         style="opacity:0.474;fill:#000000;fill-opacity:1;stroke-width:0.249384" /><path
         style="opacity:1;fill:none;stroke:#303030;stroke-width:0.471275;stroke-linecap:butt;stroke-linejoin:miter;stroke-dasharray:none;stroke-opacity:1"
         d="m 28.230621,197.91453 c -0.05921,-6.95611 21.538247,-1.0416 21.496677,-7.68947"
         id="path38330"
         sodipodi:nodetypes="cc" /><path
         style="fill:none;stroke:#303030;stroke-width:0.471275;stroke-linecap:butt;stroke-linejoin:miter;stroke-dasharray:none;stroke-opacity:1"
         d="m 76.240111,197.91453 c 0.07269,-6.95611 -26.431446,-1.0416 -26.380435,-7.68947"
         id="path38330-8"
         sodipodi:nodetypes="cc" /><path
         style="fill:none;fill-opacity:1;stroke:#303030;stroke-width:0.471275;stroke-linecap:butt;stroke-linejoin:miter;stroke-dasharray:none;stroke-opacity:1"
         d="m 49.925044,168.45679 v 5.85008"
         id="path39907" /></g><path
       d="m 142.87664,61.903401 c 0,0.659252 0.53523,1.194117 1.19493,1.194117 h 3.05369 c 0.58668,0 1.06216,-0.475154 1.06216,-1.06144 0,-0.513295 -0.36512,-0.942011 -0.84972,-1.03987 0.034,-0.08873 0.0531,-0.185743 0.0531,-0.286907 0,-0.43951 -0.35681,-0.796086 -0.79661,-0.796086 -0.16347,0 -0.31617,0.04975 -0.44229,0.134338 -0.22985,-0.398039 -0.65887,-0.665054 -1.15095,-0.665054 -0.73354,0 -1.32769,0.59374 -1.32769,1.326802 0,0.02245 8.3e-4,0.04474 0.002,0.06711 -0.46469,0.163362 -0.79827,0.606178 -0.79827,1.126943 z"
       id="path31345"
       style="opacity:0.471;fill:#000000;stroke-width:0.208225" /><rect
       style="fill:#aaccff;stroke:#555555;stroke-width:0.393494;stroke-linecap:square;stroke-dasharray:none;stroke-opacity:1"
       id="rect35167-0"
       width="33.194908"
       height="13.310989"
       x="152.60878"
       y="103.70232" /><path
       d="m 161.21435,108.2717 v 0.60302 c 0,0.55527 -1.26092,1.00502 -2.81601,1.00502 -1.55507,0 -2.81598,-0.44975 -2.81598,-1.00502 v -0.60302 c 0,-0.55528 1.26091,-1.00503 2.81598,-1.00503 1.55509,0 2.81601,0.44975 2.81601,1.00503 z m -0.68892,1.69221 c 0.26149,-0.093 0.5016,-0.2123 0.68892,-0.35929 v 1.28015 c 0,0.55527 -1.26092,1.00503 -2.81601,1.00503 -1.55507,0 -2.81598,-0.44976 -2.81598,-1.00503 v -1.28015 c 0.18731,0.14824 0.42742,0.26632 0.68891,0.35929 0.56445,0.20101 1.31623,0.31784 2.12707,0.31784 0.81086,0 1.56263,-0.11683 2.12709,-0.31784 z m -4.94307,1.65076 c 0.18731,0.14824 0.42742,0.26633 0.68891,0.3593 0.56445,0.201 1.31623,0.31784 2.12707,0.31784 0.81086,0 1.56263,-0.11684 2.12709,-0.31784 0.26149,-0.093 0.5016,-0.21231 0.68892,-0.3593 v 1.07915 c 0,0.55527 -1.26092,1.00503 -2.81601,1.00503 -1.55507,0 -2.81598,-0.44976 -2.81598,-1.00503 z"
       id="path31417-1"
       style="opacity:0.474093;fill:#000000;stroke-width:0.208225" /><text
       xml:space="preserve"
       style="font-style:normal;font-variant:normal;font-weight:bold;font-stretch:normal;font-size:2.58026px;line-height:1.25;font-family:Inconsolata;-inkscape-font-specification:'Inconsolata Bold';letter-spacing:0px;word-spacing:0px;opacity:0.801373;fill:#000000;fill-opacity:1;stroke:none;stroke-width:0.208224"
       x="164.06303"
       y="109.86033"
       id="text37198-79"
       transform="scale(1.0003472,0.99965297)"><tspan
         sodipodi:role="line"
         id="tspan37196-1"
         style="font-style:normal;font-variant:normal;font-weight:normal;font-stretch:normal;font-family:Inter;-inkscape-font-specification:Inter;fill:#000000;stroke-width:0.208224"
         x="164.06303"
         y="109.86033">Genealogische</tspan><tspan
         sodipodi:role="line"
         style="font-style:normal;font-variant:normal;font-weight:normal;font-stretch:normal;font-family:Inter;-inkscape-font-specification:Inter;fill:#000000;stroke-width:0.208224"
         x="164.06303"
         y="113.13321"
         id="tspan37200-0">Datenbank</tspan></text><rect
       style="fill:#aaccff;stroke:#555555;stroke-width:0.393494;stroke-linecap:square;stroke-dasharray:none;stroke-opacity:1"
       id="rect35167-3-3"
       width="24.739801"
       height="13.310989"
       x="119.34764"
       y="104.01868" /><rect
       style="fill:#aaccff;stroke:#555555;stroke-width:0.393494;stroke-linecap:square;stroke-dasharray:none;stroke-opacity:1"
       id="rect35167-3-8-5"
       width="29.98881"
       height="13.310989"
       x="133.97565"
       y="84.237221" /><text
       xml:space="preserve"
       style="font-style:normal;font-variant:normal;font-weight:bold;font-stretch:normal;font-size:2.58026px;line-height:1.25;font-family:Inconsolata;-inkscape-font-specification:'Inconsolata Bold';letter-spacing:0px;word-spacing:0px;opacity:0.801373;fill:#000000;fill-opacity:1;stroke:none;stroke-width:0.208224"
       x="132.54837"
       y="111.29446"
       id="text37198-0-9"
       transform="scale(1.0003472,0.99965297)"><tspan
         sodipodi:role="line"
         style="font-style:normal;font-variant:normal;font-weight:normal;font-stretch:normal;font-family:Inter;-inkscape-font-specification:Inter;fill:#000000;stroke-width:0.208224"
         x="132.54837"
         y="111.29446"
         id="tspan37200-3-4">Medien</tspan></text><path
       d="m 124.85006,107.25126 h 4.02284 c 0.44377,0 0.80457,0.36055 0.80457,0.80401 v 2.81408 c 0,0.44347 -0.3608,0.80402 -0.80457,0.80402 h -4.02284 c -0.44377,0 -0.80456,-0.36055 -0.80456,-0.80402 v -2.81408 c 0,-0.44346 0.36079,-0.80401 0.80456,-0.80401 z m 2.76571,1.34045 c -0.0565,-0.0842 -0.15087,-0.13443 -0.25144,-0.13443 -0.10056,0 -0.19485,0.0503 -0.25143,0.13443 l -0.70399,1.05527 -0.21749,-0.27261 c -0.0579,-0.0716 -0.14456,-0.11306 -0.23508,-0.11306 -0.0905,0 -0.17852,0.0414 -0.23509,0.11306 l -0.80457,1.00503 c -0.0729,0.0904 -0.0867,0.21483 -0.0365,0.3191 0.0503,0.10427 0.15589,0.17085 0.27154,0.17085 h 1.00571 0.60343 1.81028 c 0.11189,0 0.21372,-0.0615 0.26652,-0.15955 0.0528,-0.098 0.0465,-0.21734 -0.0151,-0.30905 z m -1.76,-0.13443 a 0.402285,0.4020114 0 1 0 -0.80457,0 0.402285,0.4020114 0 1 0 0.80457,0 z m -3.41942,0.40202 h 1.20685 v 3.21608 0.40201 c 0,0.22236 0.17978,0.40201 0.4023,0.40201 h 1.60913 c 0.22251,0 0.40228,-0.17965 0.40228,-0.40201 v -0.40201 h 2.01142 v 0.80402 c 0,0.44347 -0.36079,0.80402 -0.80456,0.80402 h -4.82742 c -0.44376,0 -0.80456,-0.36055 -0.80456,-0.80402 v -3.21608 c 0,-0.44347 0.3608,-0.80402 0.80456,-0.80402 z m 0.10057,0.80402 c -0.11062,0 -0.20114,0.0905 -0.20114,0.201 v 0.20101 c 0,0.11055 0.0905,0.20101 0.20114,0.20101 h 0.20115 c 0.11062,0 0.20114,-0.0905 0.20114,-0.20101 v -0.20101 c 0,-0.11055 -0.0905,-0.201 -0.20114,-0.201 z m 0,1.30653 c -0.11062,0 -0.20114,0.0905 -0.20114,0.20101 v 0.20101 c 0,0.11055 0.0905,0.201 0.20114,0.201 h 0.20115 c 0.11062,0 0.20114,-0.0904 0.20114,-0.201 v -0.20101 c 0,-0.11056 -0.0905,-0.20101 -0.20114,-0.20101 z m 0,1.30654 c -0.11062,0 -0.20114,0.0904 -0.20114,0.201 v 0.20101 c 0,0.11055 0.0905,0.201 0.20114,0.201 h 0.20115 c 0.11062,0 0.20114,-0.0905 0.20114,-0.201 v -0.20101 c 0,-0.11055 -0.0905,-0.201 -0.20114,-0.201 z m 4.22398,0.201 v 0.20101 c 0,0.11055 0.0905,0.201 0.20116,0.201 h 0.20114 c 0.11063,0 0.20113,-0.0905 0.20113,-0.201 v -0.20101 c 0,-0.11055 -0.0905,-0.201 -0.20113,-0.201 h -0.20114 c -0.11063,0 -0.20116,0.0904 -0.20116,0.201 z"
       id="path31408-8"
       style="opacity:0.474093;fill:#000000;stroke-width:0.208225" /><path
       d="m 142.48661,90.897067 c -0.0968,-0.388189 -0.28034,-0.680898 -0.6713,-0.680898 h -0.50413 v 0.595469 c 0,0.462323 -0.39222,0.851764 -0.83976,0.851764 h -1.34263 c -0.36708,0 -0.67131,0.314071 -0.67131,0.682158 v 1.278904 c 0,0.364331 0.3168,0.577888 0.67131,0.682158 0.42492,0.124379 0.83348,0.146993 1.34263,0 0.33816,-0.09798 0.67131,-0.29523 0.67131,-0.682158 v -0.511308 h -1.34136 v -0.170859 h 2.01394 c 0.39096,0 0.53553,-0.272616 0.6713,-0.680906 0.1408,-0.420844 0.13452,-0.825377 0,-1.364324 z m -1.93097,2.556538 c 0.13955,0 0.25269,0.114329 0.25269,0.255036 0,0.141959 -0.11314,0.25628 -0.25269,0.25628 -0.13828,0 -0.25268,-0.115581 -0.25268,-0.25628 0.002,-0.141968 0.1144,-0.255036 0.25268,-0.255036 z m -1.48845,-1.958549 h 1.34262 c 0.37338,0 0.67132,-0.307784 0.67132,-0.682158 v -1.280155 c 0,-0.364323 -0.30675,-0.636931 -0.67132,-0.698486 -0.45005,-0.07413 -0.93908,-0.07037 -1.34262,0.0017 -0.56822,0.100505 -0.67132,0.310306 -0.67132,0.698494 v 0.511316 h 1.34389 v 0.170851 h -1.84799 c -0.39097,0 -0.73291,0.234927 -0.83977,0.680914 -0.1232,0.511299 -0.12823,0.830395 0,1.364325 0.0955,0.396978 0.32309,0.680897 0.71405,0.680897 h 0.46137 v -0.613065 c 0,-0.443475 0.38344,-0.834176 0.83977,-0.834176 z m -0.0842,-1.791463 c -0.13954,0 -0.25268,-0.11432 -0.25268,-0.255011 0.002,-0.141959 0.11314,-0.256288 0.25268,-0.256288 0.13829,0 0.25268,0.115581 0.25268,0.256288 0,0.140691 -0.11313,0.255011 -0.25268,0.255011 z"
       id="path31381-4"
       style="opacity:0.474093;fill:#000000;stroke-width:0.208225" /><text
       xml:space="preserve"
       style="font-style:normal;font-variant:normal;font-weight:bold;font-stretch:normal;font-size:2.58026px;line-height:1.25;font-family:Inconsolata;-inkscape-font-specification:'Inconsolata Bold';letter-spacing:0px;word-spacing:0px;opacity:0.801373;fill:#000000;fill-opacity:1;stroke:none;stroke-width:0.208224"
       x="144.87794"
       y="90.141754"
       id="text37198-7-6"
       transform="scale(1.0003472,0.99965297)"><tspan
         sodipodi:role="line"
         style="font-style:normal;font-variant:normal;font-weight:normal;font-stretch:normal;font-family:Inter;-inkscape-font-specification:Inter;fill:#000000;stroke-width:0.208224"
         x="144.87794"
         y="90.141754"
         id="tspan37200-1-9">Gramps-</tspan><tspan
         sodipodi:role="line"
         style="font-style:normal;font-variant:normal;font-weight:normal;font-stretch:normal;font-family:Inter;-inkscape-font-specification:Inter;fill:#000000;stroke-width:0.208224"
         x="144.87794"
         y="93.414635"
         id="tspan37412-2">Bibliothek</tspan></text><path
       style="fill:none;stroke:#303030;stroke-width:0.393494;stroke-linecap:butt;stroke-linejoin:miter;stroke-dasharray:none;stroke-opacity:1"
       d="m 131.25442,103.90612 c -0.0494,-5.806688 17.98767,-0.8695 17.95296,-6.418876"
       id="path38330-3"
       sodipodi:nodetypes="cc" /><path
       style="fill:none;stroke:#303030;stroke-width:0.393494;stroke-linecap:butt;stroke-linejoin:miter;stroke-dasharray:none;stroke-opacity:1"
       d="m 171.34958,103.90612 c 0.0607,-5.806688 -22.07425,-0.8695 -22.03165,-6.418876"
       id="path38330-8-7"
       sodipodi:nodetypes="cc" /><path
       style="fill:none;fill-opacity:1;stroke:#303030;stroke-width:0.393;stroke-linecap:butt;stroke-linejoin:miter;stroke-dasharray:none;stroke-opacity:1"
       d="m 149.37253,79.315949 v 4.883416"
       id="path39907-9" /><rect
       style="fill:#deaa87;stroke:#555555;stroke-width:0.393494;stroke-linecap:square;stroke-dasharray:none;stroke-opacity:1"
       id="rect35167-3-8-0-9"
       width="29.98881"
       height="13.310989"
       x="134.39009"
       y="65.966324" /><rect
       style="fill:#deaa87;stroke:#555555;stroke-width:0.393494;stroke-linecap:square;stroke-dasharray:none;stroke-opacity:1"
       id="rect35167-3-8-0-9-9"
       width="29.98881"
       height="13.310989"
       x="175.00867"
       y="65.758385" /><path
       d="m 138.25077,69.506968 c -0.44377,0 -0.80457,0.360559 -0.80457,0.804025 v 0.804017 c 0,0.443466 0.3608,0.804024 0.80457,0.804024 h 4.82741 c 0.44377,0 0.80457,-0.360558 0.80457,-0.804024 v -0.804017 c 0,-0.443466 -0.3608,-0.804025 -0.80457,-0.804025 z m 3.51998,0.904522 a 0.3017167,0.3015115 0 1 1 0,0.603023 0.3017167,0.3015115 0 1 1 0,-0.603023 z m 0.60343,0.301507 a 0.30171522,0.30151003 0 1 1 0.60343,0 0.30171522,0.30151003 0 1 1 -0.60343,0 z m -4.12341,2.010062 c -0.44377,0 -0.80457,0.36055 -0.80457,0.804016 V 74.3311 c 0,0.443467 0.3608,0.804017 0.80457,0.804017 h 4.82741 c 0.44377,0 0.80457,-0.36055 0.80457,-0.804017 v -0.804025 c 0,-0.443466 -0.3608,-0.804016 -0.80457,-0.804016 z m 3.51998,0.904522 a 0.30171381,0.30150861 0 1 1 0,0.603014 0.30171381,0.30150861 0 1 1 0,-0.603014 z m 0.704,0.301507 a 0.30171522,0.30151003 0 1 1 0.60343,0 0.30171522,0.30151003 0 1 1 -0.60343,0 z"
       id="path31354-4"
       style="opacity:0.474;fill:#000000;stroke-width:0.208225" /><text
       xml:space="preserve"
       style="font-style:normal;font-variant:normal;font-weight:bold;font-stretch:normal;font-size:2.58026px;line-height:1.25;font-family:Inconsolata;-inkscape-font-specification:'Inconsolata Bold';letter-spacing:0px;word-spacing:0px;opacity:0.801373;fill:#000000;fill-opacity:1;stroke:none;stroke-width:0.208224"
       x="146.23352"
       y="71.491028"
       id="text37198-7-6-9"
       transform="scale(1.0003471,0.99965298)"><tspan
         sodipodi:role="line"
         style="font-style:normal;font-variant:normal;font-weight:normal;font-stretch:normal;font-family:Inter;-inkscape-font-specification:Inter;fill:#000000;stroke-width:0.208224"
         x="146.23352"
         y="71.491028"
         id="tspan37412-2-1">Gramps</tspan><tspan
         sodipodi:role="line"
         style="font-style:normal;font-variant:normal;font-weight:normal;font-stretch:normal;font-family:Inter;-inkscape-font-specification:Inter;fill:#000000;stroke-width:0.208224"
         x="146.23352"
         y="74.763908"
         id="tspan43154">Web API</tspan></text><path
       style="fill:none;fill-opacity:1;stroke:#303030;stroke-width:0.393494;stroke-linecap:butt;stroke-linejoin:miter;stroke-dasharray:none;stroke-opacity:1"
       d="m 149.55661,56.81591 v 9.086061"
       id="path39907-9-9" /><path
       style="fill:none;fill-opacity:1;stroke:#303030;stroke-width:0.393494;stroke-linecap:butt;stroke-linejoin:miter;stroke-dasharray:none;stroke-opacity:1"
       d="m 164.44611,72.684268 h 10.55804"
       id="path39907-9-9-3" /><rect
       style="fill:#deaa87;stroke:#555555;stroke-width:0.393494;stroke-linecap:square;stroke-dasharray:none;stroke-opacity:1"
       id="rect35167-3-8-0-9-4"
       width="34.290386"
       height="13.310989"
       x="132.42337"
       y="43.621986" /><text
       xml:space="preserve"
       style="font-style:normal;font-variant:normal;font-weight:bold;font-stretch:normal;font-size:2.58026px;line-height:1.25;font-family:Inconsolata;-inkscape-font-specification:'Inconsolata Bold';letter-spacing:0px;word-spacing:0px;opacity:0.801373;fill:#000000;fill-opacity:1;stroke:none;stroke-width:0.208224"
       x="144.20862"
       y="49.138927"
       id="text37198-7-6-9-0"
       transform="scale(1.0003471,0.99965298)"><tspan
         sodipodi:role="line"
         style="font-style:normal;font-variant:normal;font-weight:normal;font-stretch:normal;font-family:Inter;-inkscape-font-specification:Inter;fill:#000000;stroke-width:0.208224"
         x="144.20862"
         y="49.138927"
         id="tspan43292">Gramps.js</tspan><tspan
         sodipodi:role="line"
         style="font-style:normal;font-variant:normal;font-weight:normal;font-stretch:normal;font-family:Inter;-inkscape-font-specification:Inter;fill:#000000;stroke-width:0.208224"
         x="144.20862"
         y="52.411812"
         id="tspan43296">Weboberfläche</tspan></text><path
       d="m 136.04851,46.880038 c -0.44378,0 -0.80457,0.360558 -0.80457,0.804025 v 4.020116 c 0,0.443466 0.36079,0.804016 0.80457,0.804016 h 4.82741 c 0.44377,0 0.80457,-0.36055 0.80457,-0.804016 v -4.020116 c 0,-0.443467 -0.3608,-0.804025 -0.80457,-0.804025 z m 0.40228,0.804025 h 4.02285 c 0.22251,0 0.40228,0.179649 0.40228,0.402012 0,0.222364 -0.17977,0.402013 -0.40228,0.402013 h -4.02285 c -0.22252,0 -0.40228,-0.179649 -0.40228,-0.402013 0,-0.222363 0.17976,-0.402012 0.40228,-0.402012 z"
       id="path31390"
       style="opacity:0.471;fill:#000000;stroke-width:0.208225" /><rect
       style="fill:#ffdd55;stroke:#555555;stroke-width:0.393494;stroke-linecap:square;stroke-dasharray:none;stroke-opacity:1"
       id="rect35167-3-8-0-9-4-3"
       width="34.290386"
       height="13.310989"
       x="79.735817"
       y="65.90863" /><text
       xml:space="preserve"
       style="font-style:normal;font-variant:normal;font-weight:bold;font-stretch:normal;font-size:2.58026px;line-height:1.25;font-family:Inconsolata;-inkscape-font-specification:'Inconsolata Bold';letter-spacing:0px;word-spacing:0px;opacity:0.801373;fill:#000000;fill-opacity:1;stroke:none;stroke-width:0.208224"
       x="91.539345"
       y="71.433304"
       id="text37198-7-6-9-0-6"
       transform="scale(1.0003471,0.99965302)"><tspan
         sodipodi:role="line"
         style="font-style:normal;font-variant:normal;font-weight:normal;font-stretch:normal;font-family:Inter;-inkscape-font-specification:Inter;fill:#000000;stroke-width:0.208224"
         x="91.539345"
         y="71.433304"
         id="tspan896">Gramps Web</tspan><tspan
         sodipodi:role="line"
         style="font-style:normal;font-variant:normal;font-weight:normal;font-stretch:normal;font-family:Inter;-inkscape-font-specification:Inter;fill:#000000;stroke-width:0.208224"
         x="91.539345"
         y="74.706184"
         id="tspan900">Sync Addon</tspan></text><path
       d="m 182.89744,70.523031 v 0.603022 c 0,0.555267 -1.26092,1.005019 -2.816,1.005019 -1.55508,0 -2.81599,-0.449752 -2.81599,-1.005019 v -0.603022 c 0,-0.555283 1.26091,-1.005027 2.81599,-1.005027 1.55508,0 2.816,0.449744 2.816,1.005027 z m -0.68892,1.69221 c 0.26149,-0.09297 0.5016,-0.212305 0.68892,-0.35929 v 1.280148 c 0,0.555274 -1.26092,1.005035 -2.816,1.005035 -1.55508,0 -2.81599,-0.449761 -2.81599,-1.005035 v -1.280148 c 0.18732,0.148237 0.42742,0.266322 0.68892,0.35929 0.56444,0.20101 1.31622,0.317843 2.12707,0.317843 0.81085,0 1.56262,-0.116833 2.12708,-0.317843 z m -4.94307,1.650756 c 0.18732,0.148245 0.42742,0.26633 0.68892,0.359306 0.56444,0.201002 1.31622,0.317835 2.12707,0.317835 0.81085,0 1.56262,-0.116833 2.12708,-0.317835 0.26149,-0.09298 0.5016,-0.212313 0.68892,-0.359306 v 1.079153 c 0,0.555275 -1.26092,1.005027 -2.816,1.005027 -1.55508,0 -2.81599,-0.449752 -2.81599,-1.005027 z"
       id="path31417-1-6"
       style="opacity:0.474093;fill:#000000;stroke-width:0.208225" /><text
       xml:space="preserve"
       style="font-style:normal;font-variant:normal;font-weight:bold;font-stretch:normal;font-size:2.58026px;line-height:1.25;font-family:Inconsolata;-inkscape-font-specification:'Inconsolata Bold';letter-spacing:0px;word-spacing:0px;opacity:0.801373;fill:#000000;fill-opacity:1;stroke:none;stroke-width:0.208224"
       x="185.73862"
       y="72.098549"
       id="text37198-79-1"
       transform="scale(1.0003471,0.99965298)"><tspan
         sodipodi:role="line"
         id="tspan37196-1-1"
         style="font-style:normal;font-variant:normal;font-weight:normal;font-stretch:normal;font-family:Inter;-inkscape-font-specification:Inter;fill:#000000;stroke-width:0.208224"
         x="185.73862"
         y="72.098549">Benutzer-</tspan><tspan
         sodipodi:role="line"
         style="font-style:normal;font-variant:normal;font-weight:normal;font-stretch:normal;font-family:Inter;-inkscape-font-specification:Inter;fill:#000000;stroke-width:0.208224"
         x="185.73862"
         y="75.371429"
         id="tspan37200-0-4">Datenbank</tspan></text><path
       d="m 170.48777,69.809419 c 0.93161,0 1.68688,-0.754908 1.68688,-1.686091 0,-0.931184 -0.75527,-1.686092 -1.68688,-1.686092 -0.93162,0 -1.68688,0.754908 -1.68688,1.686092 0,0.179148 0.0278,0.352544 0.0795,0.514446 l -1.54598,1.545267 c -0.0431,0.04307 -0.0671,0.101549 -0.0671,0.162862 v 0.766402 c 0,0.127418 0.10256,0.229918 0.23003,0.229918 h 0.76677 c 0.12747,0 0.23002,-0.1025 0.23002,-0.229918 V 70.7291 h 0.38339 c 0.12747,0 0.23002,-0.102501 0.23002,-0.229918 v -0.383206 h 0.38339 c 0.0613,0 0.1198,-0.02396 0.16293,-0.06703 l 0.31917,-0.31902 c 0.16197,0.05175 0.33546,0.07955 0.51469,0.07955 z m 0.38337,-2.452502 a 0.38338456,0.3832055 0 1 1 0,0.766411 0.38338456,0.3832055 0 1 1 0,-0.766411 z"
       id="path46912"
       style="opacity:0.471;stroke-width:0.264583" /><text
       xml:space="preserve"
       style="font-style:normal;font-variant:normal;font-weight:bold;font-stretch:normal;font-size:7.7611px;line-height:1.25;font-family:Inconsolata;-inkscape-font-specification:'Inconsolata Bold';letter-spacing:0px;word-spacing:0px;fill:#000000;fill-opacity:1;stroke:none;stroke-width:0.264583"
       x="8.8898792"
       y="32.007412"
       id="text904"><tspan
         sodipodi:role="line"
         id="tspan902"
         style="font-style:normal;font-variant:normal;font-weight:bold;font-stretch:normal;font-family:Inter;-inkscape-font-specification:'Inter Bold';stroke-width:0.264583"
         x="8.8898792"
         y="32.007412">Gramps Desktop </tspan></text><text
       xml:space="preserve"
       style="font-style:normal;font-variant:normal;font-weight:bold;font-stretch:normal;font-size:7.7611px;line-height:1.25;font-family:Inconsolata;-inkscape-font-specification:'Inconsolata Bold';letter-spacing:0px;word-spacing:0px;fill:#000000;fill-opacity:1;stroke:none;stroke-width:0.264583"
       x="125.05164"
       y="32.007412"
       id="text904-5"><tspan
         sodipodi:role="line"
         id="tspan902-6"
         style="font-style:normal;font-variant:normal;font-weight:bold;font-stretch:normal;font-family:Inter;-inkscape-font-specification:'Inter Bold';stroke-width:0.264583"
         x="125.05164"
         y="32.007412">Gramps Web </tspan></text><path
       opacity="1"
       fill="#1e3050"
       d="m 83.902242,70.951349 c 0.809824,-0.809824 2.118302,-0.813729 2.933335,-0.01307 l -0.536413,0.535108 c -0.08983,0.08983 -0.115879,0.223937 -0.06769,0.341114 0.04817,0.117171 0.162746,0.192692 0.289037,0.192692 h 1.555852 c 0,0 0,0 0,0 h 0.110667 c 0.173161,0 0.312472,-0.139311 0.312472,-0.312471 v -1.66652 c 0,-0.126288 -0.07552,-0.240863 -0.192692,-0.289035 -0.117171,-0.04817 -0.25128,-0.02214 -0.341114,0.06769 l -0.541628,0.541676 c -1.140522,-1.126202 -2.977599,-1.122296 -4.111611,0.01307 -0.317681,0.317681 -0.546827,0.691345 -0.68744,1.091049 -0.07681,0.217428 0.03776,0.454387 0.253884,0.531202 0.216126,0.07681 0.454387,-0.03776 0.531202,-0.253883 0.100259,-0.283828 0.262999,-0.550732 0.492143,-0.778576 z m -1.652196,2.201626 v 0.09895 0.0091 1.558455 c 0,0.126288 0.07552,0.240865 0.192692,0.289037 0.117171,0.04817 0.25128,0.02214 0.341116,-0.06769 l 0.541618,-0.541623 c 1.140523,1.126202 2.977599,1.122297 4.111613,-0.01307 0.317681,-0.31768 0.548128,-0.691345 0.68874,-1.089747 0.07681,-0.217428 -0.03776,-0.454386 -0.253883,-0.531201 -0.216127,-0.07681 -0.454387,0.03776 -0.531203,0.253883 -0.100258,0.283828 -0.262997,0.550732 -0.492143,0.778576 -0.809824,0.809824 -2.118301,0.813729 -2.933333,0.01307 l 0.535109,-0.536411 c 0.08983,-0.08983 0.115879,-0.223937 0.06771,-0.341114 -0.04817,-0.117171 -0.162746,-0.192692 -0.289037,-0.192692 h -1.557153 -0.0091 -0.100259 c -0.173161,0 -0.312471,0.139311 -0.312471,0.312471 z"
       id="path951"
       style="opacity:0.471;fill:#000000;fill-opacity:1;stroke-width:0.00826822" /><path
       style="fill:none;stroke:#000000;stroke-width:0.393;stroke-linecap:butt;stroke-linejoin:miter;stroke-dasharray:none;stroke-opacity:1;marker-start:url(#TriangleStart);marker-end:url(#marker2515)"
       d="M 55.783061,72.568236 H 79.20665"
       id="path1568" /><path
       style="fill:none;stroke:#000000;stroke-width:0.393;stroke-linecap:butt;stroke-linejoin:miter;stroke-dasharray:none;stroke-opacity:1;marker-start:url(#TriangleStart-2);marker-end:url(#marker2515-1)"
       d="m 114.4281,72.621819 h 19.9937"
       id="path1568-7" /></g></svg>
